# xmcd
# Track frame offsets:
# 150
# 15527
# 29988
# 49401
# 65170
# 79815
#
# Disc length: 1267 seconds
# Revision: 0
# Processed by: cddbd v1.4PL0 Copyright (c) Steve Scherf et al.
# Submitted via: VisiTrax 2.9.5.180 - For more info visit www.synapsa.com
#
DISCID=5404f106
DTITLE=Lori Smith - Face to face
DYEAR=1900
DGENRE=
TTITLE0=Cryin' kind of man
TTITLE1=Face to face
TTITLE2=How do I break it to my heart
TTITLE3=Little bit of love
TTITLE4=Bet your thinkin' it was you
TTITLE5=Flowers won't grow in gardens of stone
EXTD=
EXTT0=
EXTT1=
EXTT2=
EXTT3=
EXTT4=
EXTT5=
PLAYORDER=
